<svg xmlns="http://www.w3.org/2000/svg" xmlns:xlink="http://www.w3.org/1999/xlink" width="187" height="94" version="1.1" viewBox="0 0 187 94"><title>vtkjs</title><desc>Created with Sketch.</desc><g id="Page-1" fill="none" fill-rule="evenodd" stroke="none" stroke-width="1"><g id="vtkjs"><polygon id="Path-94" fill="#1C4678" points="6 22 18.869 76.004 33.024 76.004 54.535 31.199 41.226 31.199 28.074 59.038 18.869 22"/><polygon id="Path-95" fill="#1C4678" points="56.82 31 88.532 31 83.448 41.392 72.613 41.361 66.548 75.632 54.901 75.632 60.915 41.414 52 41.414"/><polygon id="Path-96" fill="#1C4678" points="89.932 31 100.029 31.041 97.256 46.72 98.756 46.72 109.346 31 122.525 31 108.425 51.959 116.72 85.881 103.564 85.881 96.872 58.003 95.429 58.003 92.209 75.657 79 75.657 85.134 41.12"/><path id="JS" fill="#8A8B8A" d="M151.33244,65.8954424 C151.082215,67.2403999 150.738161,68.6322538 150.300268,70.0710456 C149.862375,71.5098374 149.205545,72.8156778 148.329759,73.9886059 C147.453972,75.161534 146.296701,76.1233206 144.857909,76.8739946 C143.419117,77.6246686 141.589377,78 139.368633,78 C136.522327,78 134.207784,77.3040731 132.424933,75.9121984 C130.642082,74.5203237 129.500449,72.6358475 129,70.2587131 L136.225201,67.9128686 C136.350313,68.7573769 136.678728,69.476762 137.210456,70.0710456 C137.742183,70.6653292 138.445929,70.9624665 139.321716,70.9624665 C140.697951,70.9624665 141.683196,70.4776635 142.27748,69.5080429 C142.871763,68.5384223 143.294011,67.3185954 143.544236,65.8485255 L147.391421,43.8914209 L155.273458,43.8914209 L151.33244,65.8954424 Z M177.371314,51.961126 C176.745752,51.1166178 175.963812,50.4754267 175.025469,50.0375335 C174.087127,49.5996403 173.039327,49.3806971 171.882038,49.3806971 C171.35031,49.3806971 170.787313,49.4510717 170.193029,49.5918231 C169.598746,49.7325744 169.059207,49.9671565 168.574397,50.2955764 C168.089586,50.6239963 167.682978,51.0384247 167.354558,51.538874 C167.026138,52.0393233 166.86193,52.6492368 166.86193,53.3686327 C166.86193,54.3069752 167.229442,55.0498185 167.964477,55.597185 C168.699512,56.1445514 169.723854,56.6528127 171.037534,57.1219839 C172.476325,57.6224332 173.758708,58.1776109 174.884718,58.7875335 C176.010729,59.3974561 176.964697,60.093383 177.746649,60.8753351 C178.528601,61.6572872 179.122876,62.5408798 179.529491,63.5261394 C179.936106,64.511399 180.13941,65.6295737 180.13941,66.8806971 C180.13941,68.8824944 179.724982,70.5871243 178.896113,71.9946381 C178.067243,73.4021518 176.995985,74.5516041 175.682306,75.4430295 C174.368626,76.3344549 172.898578,76.9834653 171.272118,77.3900804 C169.645658,77.7966955 168.034861,78 166.439678,78 C165.251111,78 164.062562,77.8905284 162.873995,77.6715818 C161.685427,77.4526352 160.543795,77.1320396 159.449062,76.7097855 C158.354329,76.2875314 157.337806,75.7479926 156.399464,75.0911528 C155.461121,74.4343131 154.663542,73.6836503 154.006702,72.8391421 L159.77748,68.1474531 C160.43432,69.1483517 161.403926,69.9615697 162.686327,70.5871314 C163.968728,71.212693 165.266749,71.5254692 166.580429,71.5254692 C167.268547,71.5254692 167.933196,71.4550945 168.574397,71.3143432 C169.215597,71.1735918 169.786414,70.9390097 170.286863,70.6105898 C170.787313,70.2821699 171.186102,69.8599222 171.483244,69.3438338 C171.780386,68.8277454 171.928954,68.2100125 171.928954,67.4906166 C171.928954,66.3333275 171.45979,65.4184573 170.521448,64.7459786 C169.583105,64.0734998 168.332001,63.4714057 166.768097,62.9396783 C165.673364,62.5643413 164.649022,62.1420935 163.69504,61.6729223 C162.741059,61.203751 161.912202,60.6251151 161.208445,59.9369973 C160.504688,59.2488795 159.941691,58.4278421 159.519437,57.4738606 C159.097183,56.5198791 158.886059,55.3704267 158.886059,54.0254692 C158.886059,52.3364527 159.237932,50.811669 159.941689,49.4510724 C160.645446,48.0904758 161.607233,46.9332041 162.827078,45.9792225 C164.046923,45.025241 165.470054,44.2902171 167.096515,43.7741287 C168.722975,43.2580403 170.458883,43 172.30429,43 C173.27391,43 174.259155,43.0938328 175.260054,43.2815013 C176.260952,43.4691698 177.222739,43.742849 178.145442,44.1025469 C179.068146,44.4622449 179.920461,44.9079509 180.702413,45.4396783 C181.484365,45.9714057 182.141195,46.5813192 182.672922,47.269437 L177.371314,51.961126 Z"/><rect id="Rectangle-134" width="9" height="9" x="117.864" y="64.864" fill="#1C4678" rx="4.5" transform="translate(122.363961, 69.363961) rotate(-315.000000) translate(-122.363961, -69.363961)"/><polygon id="Path-99" fill="#8A8B8A" points="3.049 21.974 5.048 21.974 18.156 75.899 16.154 75.899"/><polygon id="Path-100" fill="#8A8B8A" points="38.204 31.213 39.956 31.213 29.185 53.683 28.585 51.257"/><polygon id="Path-101" fill="#8A8B8A" points="57.056 43.175 58.868 43.175 53.114 75.863 51.271 75.863"/><polygon id="Path-102" fill="#8A8B8A" points="81.639 43.198 83.476 43.198 77.704 75.855 75.868 75.855"/><polygon id="Path-103" fill="#8A8B8A" points="105.766 31.195 108.024 31.195 100.119 43.025 100.946 38.291"/><polygon id="Path-104" fill="#8A8B8A" points="96.646 62.617 102.248 86.217 100.168 86.217 95.723 67.976"/><rect id="Rectangle-134" width="9" height="9" x="117.864" y="64.864" fill="#1C4678" rx="4.5" transform="translate(122.363961, 69.363961) rotate(-315.000000) translate(-122.363961, -69.363961)"/></g></g></svg>